<svg xmlns="http://www.w3.org/2000/svg" xml:space="preserve" width="800" height="800" viewBox="0 0 799.99999 799.99999"><path d="M257.996 185.912c-98.331 0-178.084 79.753-178.084 178.082 0 98.331 79.753 178.086 178.084 178.086S436.08 462.325 436.08 363.994c0-98.33-79.753-178.082-178.084-178.082zm0 3.75c96.305 0 174.334 78.03 174.334 174.332 0 96.305-78.03 174.336-174.334 174.336-96.305 0-174.334-78.031-174.334-174.336 0-96.303 78.03-174.332 174.334-174.332z" style="color:#000;font-style:normal;font-variant:normal;font-weight:400;font-stretch:normal;font-size:medium;font-family:sans-serif;font-variant-ligatures:normal;font-variant-position:normal;font-variant-caps:normal;font-variant-numeric:normal;font-variant-alternates:normal;font-variant-east-asian:normal;font-feature-settings:normal;text-indent:0;text-decoration:none;text-decoration-line:none;text-decoration-style:solid;text-decoration-color:#000;letter-spacing:normal;word-spacing:normal;text-transform:none;writing-mode:lr-tb;direction:ltr;text-orientation:mixed;dominant-baseline:auto;baseline-shift:baseline;text-anchor:start;clip-rule:nonzero;display:inline;overflow:visible;visibility:visible;color-interpolation:sRGB;vector-effect:none;fill:#fff;fill-opacity:1;fill-rule:nonzero;stroke:none;stroke-width:3.75;stroke-linecap:butt;stroke-linejoin:round;stroke-miterlimit:4;stroke-dasharray:none;stroke-dashoffset:0;stroke-opacity:1;color-rendering:auto;image-rendering:auto;shape-rendering:auto;text-rendering:auto;enable-background:accumulate;stop-color:#000" transform="matrix(2.24613 0 0 -2.24613 -179.493 1217.583)"/><path d="M434.205 363.994c0-97.316-78.89-176.208-176.209-176.208-97.318 0-176.208 78.892-176.208 176.208 0 97.318 78.89 176.21 176.208 176.21s176.21-78.892 176.21-176.21" style="color:#000;font-style:normal;font-variant:normal;font-weight:400;font-stretch:normal;font-size:medium;font-family:sans-serif;font-variant-ligatures:normal;font-variant-position:normal;font-variant-caps:normal;font-variant-numeric:normal;font-variant-alternates:normal;font-variant-east-asian:normal;font-feature-settings:normal;text-indent:0;text-decoration:none;text-decoration-line:none;text-decoration-style:solid;text-decoration-color:#000;letter-spacing:normal;word-spacing:normal;text-transform:none;writing-mode:lr-tb;direction:ltr;text-orientation:mixed;dominant-baseline:auto;baseline-shift:baseline;text-anchor:start;clip-rule:nonzero;display:inline;overflow:visible;visibility:visible;color-interpolation:sRGB;vector-effect:none;fill:#243d7e;fill-opacity:1;fill-rule:nonzero;stroke:none;stroke-width:3.75;stroke-linecap:butt;stroke-linejoin:round;stroke-miterlimit:4;stroke-dasharray:none;stroke-dashoffset:0;stroke-opacity:1;color-rendering:auto;image-rendering:auto;shape-rendering:auto;text-rendering:auto;enable-background:accumulate;stop-color:#000" transform="matrix(2.24613 0 0 -2.24613 -179.493 1217.583)"/><path d="M0 0c0-74.038-60.021-134.061-134.062-134.061-74.039 0-134.058 60.023-134.058 134.061 0 74.04 60.019 134.063 134.058 134.063C-60.021 134.063 0 74.04 0 0" style="fill:#fff;fill-opacity:1;fill-rule:nonzero;stroke:none" transform="matrix(2.24613 0 0 -2.24613 700.782 398.982)"/><path d="m0 0 7.874 21.676-.332.225a43.133 43.133 0 0 1-2.959 1.83 56.916 56.916 0 0 1-2.886 1.559l-.515.256L-5.987 5.82l-3.644 1.323 8.943 24.616a51.786 51.786 0 0 0 4.77-2.35c1.786-.987 3.376-2.049 4.729-3.15l.563-.459 1.823 5.026 3.647-1.324-5.015-13.805 5.079-1.846L18.56 23.9 29 20.108l-1.581-4.357-6.796 2.468-7.016-19.316L9.961.229l3.25 8.941-5.081 1.845L3.646-1.324Z" style="fill:#fff;fill-opacity:1;fill-rule:nonzero;stroke:none" transform="matrix(2.24613 0 0 -2.24613 53.056 313.522)"/><path d="m0 0 3.43 3.123 11.96-13.139-3.432-3.124zm-11.797-21.238 8.86 8.07-1.897 2.083-8.864-8.07-2.406 2.646L-3.811-5.32l6.504-7.145-8.86-8.069 1.845-2.027 3.28 2.985c1.17 1.066 2.531 2.43 4.155 4.173a130.184 130.184 0 0 1 3.332 3.681l2.302-2.527c-.912-1.078-2.183-2.491-3.787-4.208a93.631 93.631 0 0 0-5.452-5.397l-4.881-4.445zm18.099-7.908 2.079-2.284 11.06 10.072-2.076 2.283zm-7.45 1.292 3.433 3.123 1.767-1.94 11.06 10.067-1.77 1.941 3.433 3.125 8.476-9.311L7.328-37.163z" style="fill:#fff;fill-opacity:1;fill-rule:nonzero;stroke:none" transform="matrix(2.24613 0 0 -2.24613 156.994 102.951)"/><path d="m0 0 4.305 1.118 8.235-31.747-4.307-1.116zm-3.198-16.471-4.642-1.204-1.155 4.453 4.641 1.203-2.458 9.467 4.307 1.116L5.161-30.97.855-32.086zm-17.078-14.271a43.523 43.523 0 0 1 3.063 5.966c.954 2.274.857 5.543-.3 9.992L-19.37-7.62l4.856 1.26 1.86-7.162c1.002-3.867 2.45-6.624 4.305-8.193 1.652-1.396 3.377-2.571 5.136-3.499l-2.043-3.651c-.866.354-1.831.886-2.876 1.579-1.206.797-2.539 1.905-3.963 3.297l-.832.813-.042-1.163c-.062-1.68-.572-3.364-1.517-5.009A87.963 87.963 0 0 0-16.5-32.71z" style="fill:#fff;fill-opacity:1;fill-rule:nonzero;stroke:none" transform="matrix(2.24613 0 0 -2.24613 327.62 22.595)"/><path d="m0 0 15.127-3.518 1.231 5.304-15.125 3.52Zm-5.433-2.716 2.988 12.858 24.238-5.639-2.991-12.856ZM.169-22.968l2.376 10.23-13.636 3.175.88 3.777 31.943-7.435-.879-3.776-13.712 3.19-2.378-10.229z" style="fill:#fff;fill-opacity:1;fill-rule:nonzero;stroke:none" transform="matrix(2.24613 0 0 -2.24613 464.785 45.93)"/><path d="M0 0c-1.326.815-2.996 2.099-4.971 3.813l-3.321 2.875L6.23 23.452l8.797-7.62-2.536-2.931-5.292 4.584-9.446-10.903 1.682-1.457c.949-.822 2.05-1.64 3.277-2.433.878-.563 1.574-1.009 2.093-1.335L2.37-1.452C1.845-1.136 1.052-.65 0 0m5.151-14.175L15.439-2.294 12.765.028 3.469-10.7.108-7.789l19.98 23.063 3.362-2.913-7.623-8.801 2.676-2.32 8.123 9.376 3.364-2.912L8.512-17.085Z" style="fill:#fff;fill-opacity:1;fill-rule:nonzero;stroke:none" transform="matrix(2.24613 0 0 -2.24613 608.664 149.453)"/><path d="m0 0 3.041 1.194L6.988-8.862l-3.043-1.195Zm-6.957 2.419 3.147 1.236 7.475-19.053-3.147-1.238zm-3.581-7.839a1.39 1.39 0 0 1-.521-.1c-.513-.203-1.108-.732-1.03-2.115a9.152 9.152 0 0 1 .631-2.764c.387-.98.874-1.808 1.45-2.462.508-.579 1.043-.872 1.592-.872.193 0 .39.037.578.111.497.194 1.074.708.991 2.042a9.114 9.114 0 0 1-.639 2.737 9.05 9.05 0 0 1-1.413 2.437c-.53.653-1.08.986-1.639.986m3.176-13.024c-.97 0-1.995.415-3.051 1.238-1.6 1.246-2.926 3.181-3.941 5.753-.886 2.268-1.192 4.514-.904 6.673.274 2.073 1.058 3.337 2.394 3.861a3.22 3.22 0 0 0 1.18.231c.992 0 2.04-.494 3.121-1.467 1.593-1.437 2.864-3.342 3.78-5.666.973-2.481 1.35-4.75 1.115-6.742-.224-1.899-1.002-3.083-2.381-3.627a3.591 3.591 0 0 0-1.313-.254m6.613-6.944-7.155-2.809-1.694 4.32 19.16 7.519 1.693-4.319-8.182-3.213 1.585-4.038-3.822-1.498zm-20.292-2.772 5.881 2.306-7.169 18.278 3.429 1.347 8.936-22.774-9.31-3.653z" style="fill:#fff;fill-opacity:1;fill-rule:nonzero;stroke:none" transform="matrix(2.24613 0 0 -2.24613 743.1 240.566)"/><path d="m0 0-.067-.203c-.232-.702-.662-1.308-1.287-1.8-.633-.505-1.251-.864-1.82-1.07a7.334 7.334 0 0 0-2.648-.332 10.67 10.67 0 0 0-2.78.524l-.202.066-1.724-5.238 6.312-2.075-6.816-20.73 5.914-1.947L5.118-1.686z" style="fill:#fff;fill-opacity:1;fill-rule:nonzero;stroke:none" transform="matrix(2.24613 0 0 -2.24613 307.639 698.85)"/><path d="M0 0c1.411-.16 2.542-.744 3.355-1.738.815-.991 1.134-2.307.953-3.909-.174-1.554-.782-2.773-1.809-3.626-1.023-.853-2.257-1.2-3.668-1.041-1.465.165-2.608.785-3.401 1.84-.796 1.06-1.11 2.384-.932 3.939.182 1.602.782 2.814 1.781 3.6.828.649 1.827.978 2.971.978C-.508.043-.256.028 0 0m10.628-4.023c-.392 2.587-1.472 4.83-3.206 6.671C5.68 4.492 3.313 5.598.377 5.929c-3.167.358-5.921-.399-8.196-2.246-2.268-1.849-3.6-4.376-3.955-7.507-.349-3.05.301-5.783 1.925-8.125 1.625-2.353 3.932-3.714 6.853-4.045 1.667-.191 3.128-.078 4.34.331 1.006.339 1.877.742 2.591 1.201a19.993 19.993 0 0 0-.309-1.515c-.182-.763-.516-1.567-.995-2.391a9.558 9.558 0 0 0-2.072-2.58c-.829-.731-2.005-1.014-3.495-.845-1.489.169-2.594.741-3.287 1.697-.704.978-1.102 1.969-1.176 2.95l-.015.174-5.672.646-.004-.234c-.05-2.461.793-4.813 2.506-6.994 1.717-2.189 4.063-3.467 6.977-3.8a13.541 13.541 0 0 1 1.489-.084c2.061 0 3.96.526 5.647 1.567 2.073 1.279 3.69 3.106 4.81 5.431.913 1.798 1.628 4.474 2.122 7.954.49 3.476.547 6.327.167 8.463" style="fill:#fff;fill-opacity:1;fill-rule:nonzero;stroke:none" transform="matrix(2.24613 0 0 -2.24613 358.339 722.605)"/><path d="M0 0c.808.864 2.094 1.379 3.814 1.534.32.029.629.044.927.044 1.32 0 2.4-.293 3.21-.867.991-.707 1.532-1.674 1.646-2.963.106-1.202-.256-2.219-1.106-3.104-.845-.879-2.164-1.408-3.92-1.564-.302-.026-.6-.041-.882-.041-1.307 0-2.363.301-3.145.891-.941.714-1.472 1.68-1.578 2.868C-1.147-1.934-.8-.853 0 0m6.607 9.081C5.89 8.324 4.763 7.873 3.26 7.739a9.09 9.09 0 0 0-.822-.039c-1.155 0-2.065.256-2.705.763-.792.624-1.218 1.403-1.307 2.385-.093 1.04.188 1.901.856 2.642.661.738 1.788 1.182 3.345 1.321.284.025.561.037.821.037 1.119 0 2.03-.239 2.712-.707.839-.578 1.293-1.388 1.39-2.476.089-.977-.221-1.821-.943-2.584m9.469-11.008c-.153 1.682-.725 3.182-1.699 4.461-.917 1.195-2.157 2.207-3.692 3.005a10.102 10.102 0 0 1 2.462 3.18 7.577 7.577 0 0 1 .768 4.064c-.221 2.457-1.503 4.514-3.811 6.114-2.298 1.591-4.997 2.261-8.021 1.992-3-.267-5.506-1.405-7.457-3.377-1.958-1.984-2.84-4.234-2.619-6.689.124-1.4.611-2.7 1.45-3.864a9.812 9.812 0 0 1 2.972-2.693C-4.969 3.202-6.024 1.987-6.714.646c-.732-1.431-1.03-3.009-.878-4.687.242-2.737 1.614-4.997 4.073-6.725 2.094-1.467 4.522-2.213 7.219-2.213.459 0 .932.022 1.407.067 3.302.291 6.046 1.52 8.151 3.646 2.111 2.14 3.059 4.609 2.818 7.339" style="fill:#fff;fill-opacity:1;fill-rule:nonzero;stroke:none" transform="matrix(2.24613 0 0 -2.24613 414.86 756.558)"/><path d="M0 0c-.277-2.261-1.24-3.607-2.936-4.125a4.182 4.182 0 0 0-1.179-.183c-1.251 0-2.449.665-3.555 1.973-1.482 1.752-2.705 4.184-3.629 7.226-.91 2.985-1.229 5.63-.956 7.858.267 2.195 1.237 3.516 2.961 4.041.398.121.796.182 1.18.182 1.233 0 2.424-.636 3.533-1.893 1.492-1.69 2.708-4.062 3.614-7.048C-.042 4.99.284 2.289 0 0m5.274 9.927c-1.414 4.66-3.564 8.216-6.39 10.572-2.85 2.376-6.181 3.013-9.881 1.888-3.649-1.11-6.017-3.475-7.037-7.031-1.009-3.524-.8-7.671.615-12.328 1.433-4.711 3.582-8.318 6.394-10.722 1.944-1.667 4.116-2.51 6.451-2.51 1.066 0 2.182.174 3.327.522 3.703 1.127 6.105 3.526 7.137 7.13 1.023 3.571.817 7.77-.616 12.479" style="fill:#fff;fill-opacity:1;fill-rule:nonzero;stroke:none" transform="matrix(2.24613 0 0 -2.24613 502.477 750.69)"/><path d="M341.82 305.264v149.068H174.175V305.264s-2.256-20.575 25.747-34.783c26.31-13.343 58.073-31.668 58.073-31.668s31.764 18.325 58.073 31.668c28.004 14.208 25.75 34.783 25.75 34.783" style="fill:#243d7e;fill-opacity:1;fill-rule:nonzero;stroke:none" transform="matrix(2.24613 0 0 -2.24613 -179.493 1217.583)"/><path d="m0 0-6.87-9.237-7.649-10.285-2.95-3.969-.554-.746-37.192-50.012-.26-12.911L-1.6-17.354l5.578 7.253L6.131 8.257z" style="fill:#fff;fill-opacity:1;fill-rule:nonzero;stroke:none" transform="matrix(2.24613 0 0 -2.24613 551.627 261.288)"/><path d="m0 0 3.422 4.6 2.972 3.991 8.337 11.185 1.288 12.912-.057-.003-8.478-11.703-3.042-4.22L-7.947-.406-34.37-37.027l-.192-9.411z" style="fill:#fff;fill-opacity:1;fill-rule:nonzero;stroke:none" transform="matrix(2.24613 0 0 -2.24613 505.397 316.029)"/><path d="m0 0 14.657 20.384.882 10.561-.028-.002L.604 9.662l-25.815-36.738-.163-8.019z" style="fill:#fff;fill-opacity:1;fill-rule:nonzero;stroke:none" transform="matrix(2.24613 0 0 -2.24613 485.35 312.324)"/><path d="m0 0 .818 10.007-11.096-15.723-20.714-29.387-.189-9.222z" style="fill:#fff;fill-opacity:1;fill-rule:nonzero;stroke:none" transform="matrix(2.24613 0 0 -2.24613 498.928 265.293)"/><path d="M0 0v-8.383l7.574 9.812.188 12.668-6.017-8.09C.259 4.008.028 1.168 0 0" style="fill:#fff;fill-opacity:1;fill-rule:nonzero;stroke:none" transform="matrix(2.24613 0 0 -2.24613 403.514 468.69)"/><path d="M0 0v-5.101L7.812 5.394l.135 9.207-6.308-8.746C.248 3.867 0 1.383 0 0" style="fill:#fff;fill-opacity:1;fill-rule:nonzero;stroke:none" transform="matrix(2.24613 0 0 -2.24613 403.514 441.461)"/><path d="M0 0v-3.828L8 7.236l.117 7.833-6.578-9.358C.238 3.735 0 1.446 0 0" style="fill:#fff;fill-opacity:1;fill-rule:nonzero;stroke:none" transform="matrix(2.24613 0 0 -2.24613 403.514 416.92)"/><path d="M0 0a.403.403 0 0 0-.039-.056l-.107-.15C-1.368-1.998-1.73-4.299-1.73-5.639v-5.772L6.44.176l.135 9.15z" style="fill:#fff;fill-opacity:1;fill-rule:nonzero;stroke:none" transform="matrix(2.24613 0 0 -2.24613 407.4 375.22)"/><path d="m0 0 6.87-9.237 7.649-10.285 2.954-3.969.553-.746 37.189-50.012.263-12.911L1.599-17.354l-5.577 7.253-2.154 18.358z" style="fill:#fff;fill-opacity:1;fill-rule:nonzero;stroke:none" transform="matrix(2.24613 0 0 -2.24613 248.375 261.288)"/><path d="m0 0-3.423 4.6-2.971 3.991-8.338 11.185-1.284 12.912.054-.003 8.477-11.703 3.046-4.22L7.947-.406l26.422-36.621.193-9.411z" style="fill:#fff;fill-opacity:1;fill-rule:nonzero;stroke:none" transform="matrix(2.24613 0 0 -2.24613 294.605 316.029)"/><path d="m0 0-14.661 20.384-.882 10.561.028-.002L-.608 9.662l25.814-36.738.164-8.019z" style="fill:#fff;fill-opacity:1;fill-rule:nonzero;stroke:none" transform="matrix(2.24613 0 0 -2.24613 314.66 312.324)"/><path d="m0 0-.817 10.007L10.279-5.716l20.714-29.387.189-9.222z" style="fill:#fff;fill-opacity:1;fill-rule:nonzero;stroke:none" transform="matrix(2.24613 0 0 -2.24613 301.071 265.293)"/><path d="M0 0v-8.383l-7.574 9.812-.185 12.668 6.014-8.09C-.26 4.008-.028 1.168 0 0" style="fill:#fff;fill-opacity:1;fill-rule:nonzero;stroke:none" transform="matrix(2.24613 0 0 -2.24613 396.488 468.69)"/><path d="M0 0v-5.101L-7.813 5.394l-.134 9.207 6.312-8.746C-.249 3.867 0 1.383 0 0" style="fill:#fff;fill-opacity:1;fill-rule:nonzero;stroke:none" transform="matrix(2.24613 0 0 -2.24613 396.488 441.461)"/><path d="M0 0v-3.828L-8.001 7.236l-.113 7.833 6.575-9.358C-.238 3.735 0 1.446 0 0" style="fill:#fff;fill-opacity:1;fill-rule:nonzero;stroke:none" transform="matrix(2.24613 0 0 -2.24613 396.488 416.92)"/><path d="m0 0 .039-.056.107-.15c1.223-1.792 1.585-4.093 1.585-5.433v-5.772L-6.439.176l-.132 9.15z" style="fill:#fff;fill-opacity:1;fill-rule:nonzero;stroke:none" transform="matrix(2.24613 0 0 -2.24613 392.6 375.22)"/><path d="M257.576 383.944s22.73 17.996 11.16 43.194c0 0-.505-5.397-2.87-1.929 0 0-5.177 6.291-5.99 8.05-.81 1.76-3.107 4.816-3.142 14.38 0 0-10.52-7.368-10.386-23.017 0 0-2.434.977-1.965 8.088 0 0-11.245-18.03 5.683-36.894 0 0 5.455-5.514 7.51-11.872" style="fill:#fff;fill-opacity:1;fill-rule:nonzero;stroke:none" transform="matrix(2.24613 0 0 -2.24613 -179.493 1217.583)"/><path d="M0 0a1.606 1.606 0 0 1 0 3.211h-11.622c-.885 0-1.607-.72-1.607-1.607 0-.886.722-1.604 1.607-1.604h4.204v-3.423h-4.204a1.607 1.607 0 0 1 0-3.213h4.204v-3.794h-4.204a1.608 1.608 0 0 1-1.607-1.605v-12.847c0-.887.722-1.606 1.607-1.606.889 0 1.606.719 1.606 1.606v11.24h2.598v-11.24a1.606 1.606 0 0 1 3.214 0v11.24h2.598v-11.24a1.607 1.607 0 0 1 3.212 0v12.847A1.604 1.604 0 0 1 0-10.43h-4.204v3.794H0a1.607 1.607 0 0 1 0 3.213h-4.204V0Z" style="fill:#fff;fill-opacity:1;fill-rule:nonzero;stroke:none" transform="matrix(2.24613 0 0 -2.24613 334.314 521.039)"/><path d="M234.045 302.69h10.04v-4.617h-10.04zm11.646 3.213h-13.253c-.331 0-.64-.102-.896-.273a1.61 1.61 0 0 1-.707-1.333v-7.83a1.606 1.606 0 0 1 1.603-1.607H234.468v-8.027h-1.444a1.606 1.606 0 1 1 0-3.213h3.046c.889 0 1.611.72 1.611 1.607v9.633h2.772v-9.633c0-.315.096-.606.252-.855.007-.013.014-.028.024-.043.015-.024.041-.046.058-.069.291-.385.75-.64 1.273-.64h3.048c.886 0 1.607.72 1.607 1.607 0 .886-.721 1.606-1.607 1.606h-1.442v8.027h2.025c.889 0 1.607.718 1.607 1.607v7.83c0 .889-.718 1.606-1.607 1.606" style="fill:#fff;fill-opacity:1;fill-rule:nonzero;stroke:none" transform="matrix(2.24613 0 0 -2.24613 -179.493 1217.583)"/><path d="M0 0h-13.254c-.885 0-1.602-.72-1.602-1.606V-3.3a1.604 1.604 0 1 1 3.21 0v.089h10.04V-3.3c0-.887.717-1.606 1.606-1.606.889 0 1.606.719 1.606 1.606v1.694C1.606-.72.889 0 0 0" style="fill:#fff;fill-opacity:1;fill-rule:nonzero;stroke:none" transform="matrix(2.24613 0 0 -2.24613 372.362 513.827)"/><path d="M0 0v.002c0 .104-.015.204-.032.302C-.036.338-.05.37-.057.403A3.69 3.69 0 0 1-.114.59c-.014.036-.035.071-.05.105-.028.055-.053.107-.085.157A1.15 1.15 0 0 1-.32.949a1.378 1.378 0 0 1-.107.135l-.085.085c-.043.04-.089.075-.135.112-.032.024-.061.046-.092.066a1.555 1.555 0 0 1-.175.094c-.028.013-.057.033-.085.044a1.396 1.396 0 0 1-.284.086 1.5 1.5 0 0 1-.323.033h-11.663V3.88a1.604 1.604 0 1 1-3.209 0V1.604h-11.661a1.6 1.6 0 0 1-1.425-.875A1.561 1.561 0 0 1-29.745 0v-23.46a1.605 1.605 0 1 1 3.209 0v21.854h5.634V-23.46a1.606 1.606 0 1 1 3.213 0v21.854h5.629V-23.46c0-.887.722-1.606 1.607-1.606.889 0 1.606.719 1.606 1.606v21.854h5.634V-23.46a1.606 1.606 0 1 1 3.213 0V-.002z" style="fill:#fff;fill-opacity:1;fill-rule:nonzero;stroke:none" transform="matrix(2.24613 0 0 -2.24613 495.401 524.233)"/><path d="M0 0c.726.966 1.593.38 1.361-.68-2.612-15.732-13.132-23.555-14.27-40.761 8.783.45 16.741 3.309 22.421 8.833 4.271 4.154 4.385 12.853 11.548 13.584-4.195-5.669-3.779-16.426-8.151-22.417-7.997-10.965-23.412-8.117-38.045-12.228 3.907 6.081 3.974 10.738 4.756 20.38C-18.983-16.135-7.421-12.547 0 0" style="fill:#fff;fill-opacity:1;fill-rule:evenodd;stroke:none" transform="matrix(2.24613 0 0 -2.24613 661.54 565.856)"/><path d="M0 0c1.312-13.356-9.11-27.616-16.304-36.686 14.427-1.27 21.908 10.232 37.366 10.193C10.751-31.039 7.087-45.359-6.113-46.196c-7.06-.447-15.877 3.52-24.461 0 9.92 6.954 7.816 20.008 14.27 28.533C-11.723-11.608-3.466-8.17 0 0" style="fill:#fff;fill-opacity:1;fill-rule:evenodd;stroke:none" transform="matrix(2.24613 0 0 -2.24613 611.191 622.319)"/><path d="M0 0a6.445 6.445 0 1 0-12.891 0 6.444 6.444 0 0 0 6.444 6.444A6.447 6.447 0 0 0 0 0" style="fill:#fff;fill-opacity:1;fill-rule:evenodd;stroke:none" transform="matrix(2.24613 0 0 -2.24613 685.921 614.288)"/><path d="M0 0c-.725.966-1.588.38-1.357-.68 2.609-15.732 13.132-23.555 14.266-40.761-8.778.45-16.74 3.309-22.42 8.833-4.272 4.154-4.385 12.853-11.548 13.584 4.199-5.669 3.779-16.426 8.151-22.417 7.997-10.965 23.411-8.117 38.044-12.228-3.907 6.081-3.97 10.738-4.755 20.38C18.983-16.135 7.422-12.547 0 0" style="fill:#fff;fill-opacity:1;fill-rule:evenodd;stroke:none" transform="matrix(2.24613 0 0 -2.24613 138.46 565.856)"/><path d="M0 0c-1.312-13.356 9.113-27.616 16.307-36.686C1.88-37.956-5.605-26.454-21.059-26.493c10.307-4.546 13.975-18.866 27.176-19.703 7.055-.447 15.873 3.52 24.456 0-9.916 6.954-7.815 20.008-14.266 28.533C11.722-11.608 3.469-8.17 0 0" style="fill:#fff;fill-opacity:1;fill-rule:evenodd;stroke:none" transform="matrix(2.24613 0 0 -2.24613 188.811 622.319)"/><path d="M0 0a6.445 6.445 0 1 1 12.888 0 6.442 6.442 0 0 1-6.445 6.444A6.444 6.444 0 0 1 0 0" style="fill:#fff;fill-opacity:1;fill-rule:evenodd;stroke:none" transform="matrix(2.24613 0 0 -2.24613 114.088 614.288)"/></svg>